<svg width="101" height="100" viewBox="0 0 101 100" fill="none" xmlns="http://www.w3.org/2000/svg">
<path d="M19.25 54.6875L13.4236 92.5588C13.3712 92.8995 13.3931 93.2474 13.4878 93.5787C13.5824 93.9101 13.7476 94.2171 13.972 94.4786C14.1964 94.7402 14.4747 94.9501 14.7878 95.0941C15.1009 95.238 15.4414 95.3125 15.7861 95.3125C16.3266 95.3125 16.8511 95.1293 17.2741 94.7928C17.6971 94.4563 17.9935 93.9864 18.1151 93.4597L27.0625 54.6875H19.25Z" fill="#BC8D5D"/>
<path d="M36.0422 54.6875L30.2158 92.5588C30.1634 92.8995 30.1853 93.2474 30.2799 93.5787C30.3746 93.9101 30.5398 94.2171 30.7641 94.4786C30.9885 94.7402 31.2668 94.9501 31.58 95.0941C31.8931 95.238 32.2336 95.3125 32.5782 95.3125C33.1187 95.3125 33.6433 95.1293 34.0663 94.7928C34.4892 94.4563 34.7857 93.9864 34.9072 93.4597L43.8547 54.6875H36.0422Z" fill="#BC8D5D"/>
<path d="M60.2703 54.6875L66.0967 92.5588C66.1491 92.8995 66.1272 93.2474 66.0326 93.5787C65.9379 93.9101 65.7727 94.2171 65.5484 94.4786C65.324 94.7402 65.0457 94.9501 64.7325 95.0941C64.4194 95.238 64.0789 95.3125 63.7343 95.3125C63.1938 95.3125 62.6692 95.1293 62.2462 94.7928C61.8233 94.4563 61.5268 93.9864 61.4053 93.4597L52.4578 54.6875H60.2703Z" fill="#BC8D5D"/>
<path d="M72.7703 54.6875L78.5967 92.5588C78.6491 92.8995 78.6272 93.2474 78.5326 93.5787C78.4379 93.9101 78.2727 94.2171 78.0484 94.4786C77.824 94.7402 77.5457 94.9501 77.2325 95.0941C76.9194 95.238 76.5789 95.3125 76.2343 95.3125C75.6938 95.3125 75.1692 95.1293 74.7462 94.7928C74.3233 94.4563 74.0268 93.9864 73.9053 93.4597L64.9578 54.6875H72.7703Z" fill="#BC8D5D"/>
<path d="M22.375 42.1875H25.953C28.1148 42.1875 30.2251 41.5277 32.002 40.2964C33.7788 39.065 35.1375 37.3207 35.8966 35.2965L45.8542 8.74298C46.3009 7.55171 47.1006 6.52515 48.1463 5.80047C49.192 5.07578 50.434 4.6875 51.7062 4.6875H73.1076C73.9938 4.6875 74.8699 4.87596 75.6777 5.24039C76.4855 5.60481 77.2066 6.13686 77.7931 6.80123C78.3796 7.46561 78.8181 8.24711 79.0795 9.09388C79.3409 9.94066 79.4193 10.8334 79.3093 11.7127L76.6628 32.8849C76.3418 35.4533 75.0937 37.8161 73.1532 39.5291C71.2128 41.2422 68.7134 42.1875 66.125 42.1875C65.2962 42.1875 64.5013 42.5167 63.9153 43.1028C63.3292 43.6888 63 44.4837 63 45.3125V53.125H19.25V45.3125C19.25 44.4837 19.5792 43.6888 20.1653 43.1028C20.7513 42.5167 21.5462 42.1875 22.375 42.1875Z" fill="#3EA7FF"/>
<path d="M22.375 48.4375H53.625C54.4538 48.4375 55.2487 48.7667 55.8347 49.3528C56.4208 49.9388 56.75 50.7337 56.75 51.5625V54.6875H19.25V51.5625C19.25 50.7337 19.5792 49.9388 20.1653 49.3528C20.7513 48.7667 21.5462 48.4375 22.375 48.4375Z" fill="#3EA7FF"/>
<path d="M23.9375 48.4375H53.625C54.4538 48.4375 55.2487 48.7667 55.8347 49.3528C56.4208 49.9388 56.75 50.7337 56.75 51.5625V54.6875H20.8125V51.5625C20.8125 50.7337 21.1417 49.9388 21.7278 49.3528C22.3138 48.7667 23.1087 48.4375 23.9375 48.4375Z" fill="#87C9FF"/>
<path d="M79.3086 11.7129L75.5 42.1875H66.125C65.7146 42.1874 65.3082 42.2681 64.929 42.4251C64.5498 42.5821 64.2052 42.8123 63.915 43.1025C63.6248 43.3927 63.3946 43.7373 63.2376 44.1165C63.0806 44.4957 62.9999 44.9021 63 45.3125V54.6875H56.75V45.3125C56.7499 44.9021 56.8306 44.4957 56.9876 44.1165C57.1446 43.7373 57.3748 43.3927 57.665 43.1025C57.9552 42.8123 58.2998 42.5821 58.679 42.4251C59.0582 42.2681 59.4646 42.1874 59.875 42.1875C62.4634 42.1874 64.9626 41.242 66.9029 39.529C68.8433 37.8159 70.0912 35.4531 70.4121 32.8848L71.9902 20.2715C72.082 19.5348 72.1283 18.7932 72.1289 18.0508C72.1283 15.5257 71.593 13.0294 70.5582 10.7261C69.5234 8.42283 68.0125 6.36481 66.125 4.6875H73.1074C73.9936 4.68744 74.8697 4.87588 75.6776 5.2403C76.4854 5.60473 77.2065 6.13681 77.7929 6.80122C78.3794 7.46563 78.8178 8.24719 79.0791 9.094C79.3405 9.94082 79.4187 10.8335 79.3086 11.7129Z" fill="#87C9FF"/>
<path d="M73.9375 54.6875H63V45.3125C63 44.4837 63.3292 43.6888 63.9153 43.1028C64.5013 42.5167 65.2962 42.1875 66.125 42.1875C68.7134 42.1875 71.2127 41.2422 73.1532 39.5291C75.0937 37.8161 76.3418 35.4533 76.6628 32.8849L73.9375 54.6875Z" fill="#2B7CD4"/>
<path d="M19.25 54.6875H13V45.3125C13 44.4837 13.3292 43.6888 13.9153 43.1028C14.5013 42.5167 15.2962 42.1875 16.125 42.1875H22.375C21.5462 42.1875 20.7513 42.5167 20.1653 43.1028C19.5792 43.6888 19.25 44.4837 19.25 45.3125V54.6875Z" fill="#87C9FF"/>
</svg>
