<svg width="16" height="17" viewBox="0 0 16 17" fill="none" xmlns="http://www.w3.org/2000/svg">
<path d="M8.84 2.9L3.36667 8.69333C3.16 8.91333 2.96 9.34666 2.92 9.64666L2.67334 11.8067C2.58667 12.5867 3.14667 13.12 3.92 12.9867L6.06667 12.62C6.36667 12.5667 6.78667 12.3467 6.99334 12.12L12.4667 6.32666C13.4133 5.32666 13.84 4.18666 12.3667 2.79333C10.9 1.41333 9.78667 1.9 8.84 2.9Z" stroke="#4D535A" stroke-width="1.5" stroke-miterlimit="10" stroke-linecap="round" stroke-linejoin="round"/>
<path d="M8.84 2.9L3.36667 8.69333C3.16 8.91333 2.96 9.34666 2.92 9.64666L2.67334 11.8067C2.58667 12.5867 3.14667 13.12 3.92 12.9867L6.06667 12.62C6.36667 12.5667 6.78667 12.3467 6.99334 12.12L12.4667 6.32666C13.4133 5.32666 13.84 4.18666 12.3667 2.79333C10.9 1.41333 9.78667 1.9 8.84 2.9Z" stroke="black" stroke-opacity="0.2" stroke-width="1.5" stroke-miterlimit="10" stroke-linecap="round" stroke-linejoin="round"/>
<path d="M7.92667 3.86667C8.21333 5.70667 9.70667 7.11333 11.56 7.3" stroke="#4D535A" stroke-width="1.5" stroke-miterlimit="10" stroke-linecap="round" stroke-linejoin="round"/>
<path d="M7.92667 3.86667C8.21333 5.70667 9.70667 7.11333 11.56 7.3" stroke="black" stroke-opacity="0.2" stroke-width="1.5" stroke-miterlimit="10" stroke-linecap="round" stroke-linejoin="round"/>
<path d="M2 15.1667H14" stroke="#4D535A" stroke-width="1.5" stroke-miterlimit="10" stroke-linecap="round" stroke-linejoin="round"/>
<path d="M2 15.1667H14" stroke="black" stroke-opacity="0.2" stroke-width="1.5" stroke-miterlimit="10" stroke-linecap="round" stroke-linejoin="round"/>
</svg>
