<svg width="250" height="187" viewBox="0 0 250 187" fill="none" xmlns="http://www.w3.org/2000/svg">
<path d="M145.679 55.4574C134.622 55.0936 125.383 46.6175 123.822 35.4001L119.903 7.2687L134.641 5.2135C135.751 5.08265 140.401 4.65821 144.575 7.88781C146.235 9.16433 147.633 10.9068 148.832 13.4981C151.181 18.5723 161.125 44.8718 150.249 53.3416C148.903 54.3783 147.341 55.1012 145.679 55.4574Z" fill="black"/>
<path d="M192.924 186.894H104.365L97.21 79.0282C109.693 73.5644 122.765 69.5584 136.166 67.0895C155.314 63.5791 170.479 63.4323 184.186 65.1364C187.103 105.81 190.004 146.221 192.924 186.894Z" fill="black"/>
<path d="M144.862 54.3978L141.352 44.7632C144.808 44.6228 147.572 41.6198 147.572 37.9242C147.572 34.1362 144.677 31.0693 141.103 31.0693C139.571 31.0732 138.094 31.6413 136.954 32.665L130.345 14.5033L103.248 23.2251C101.992 23.6286 100.828 24.2757 99.8222 25.1293C98.8166 25.983 97.9889 27.0264 97.3867 28.2001C96.7845 29.3737 96.4194 30.6545 96.3124 31.9693C96.2054 33.2841 96.3586 34.6071 96.7632 35.8627L104.103 58.6709C105.221 62.129 107.665 65.0024 110.898 66.6608C114.132 68.3193 117.892 68.6273 121.352 67.5172L125.293 65.7556L128.587 72.7956C128.729 73.1068 128.975 73.3585 129.283 73.5073C135.005 76.2582 141.39 75.5848 145.322 71.9116C148.038 69.3809 149.541 67.1023 149.975 65.612C150.07 65.2631 150.033 64.8913 149.87 64.5684L144.862 54.3978Z" fill="white"/>
<path d="M125.3 65.7682L137.178 60.343C137.257 60.3086 137.345 60.3022 137.428 60.3249C137.511 60.3476 137.584 60.398 137.634 60.4677C137.684 60.5374 137.709 60.6223 137.705 60.7082C137.7 60.7941 137.666 60.8758 137.609 60.9398L127.907 71.3434L125.3 65.7682Z" fill="black"/>
<path d="M140.561 40.7583C140.102 40.7589 139.653 40.6233 139.271 40.3688C138.889 40.1142 138.591 39.7521 138.415 39.3282C138.239 38.9044 138.192 38.4378 138.281 37.9875C138.371 37.5372 138.591 37.1235 138.916 36.7988C139.24 36.474 139.653 36.2527 140.104 36.1629C140.554 36.0731 141.02 36.1189 141.445 36.2944C141.869 36.4699 142.231 36.7673 142.486 37.1489C142.741 37.5305 142.877 37.9792 142.877 38.4382C142.877 39.0529 142.633 39.6426 142.199 40.0776C141.765 40.5126 141.175 40.7574 140.561 40.7583ZM140.561 37.3978C140.354 37.3972 140.152 37.4579 139.98 37.5724C139.808 37.6868 139.673 37.8497 139.594 38.0405C139.514 38.2314 139.494 38.4414 139.534 38.6442C139.574 38.8469 139.673 39.0331 139.819 39.1793C139.966 39.3254 140.152 39.4249 140.355 39.465C140.557 39.5052 140.767 39.4842 140.958 39.4049C141.149 39.3255 141.312 39.1912 141.426 39.0191C141.541 38.847 141.602 38.6448 141.601 38.4382C141.601 38.1623 141.491 37.8976 141.296 37.7025C141.101 37.5074 140.836 37.3978 140.561 37.3978Z" fill="black"/>
<path d="M138.927 39.4658C138.769 39.4669 138.617 39.4098 138.499 39.3056C138.382 39.2013 138.306 39.0572 138.288 38.901C138.126 37.5191 138.442 36.4022 139.227 35.5756C140.701 34.0215 143.286 34.1651 143.394 34.1715C143.564 34.182 143.722 34.2594 143.834 34.3866C143.946 34.5138 144.003 34.6803 143.993 34.8496C143.982 35.0189 143.905 35.177 143.778 35.2893C143.65 35.4015 143.484 35.4586 143.315 35.448C143.296 35.448 141.208 35.3363 140.149 36.4564C139.632 37.0021 139.44 37.7521 139.555 38.7542C139.574 38.9217 139.526 39.0898 139.421 39.2219C139.317 39.3541 139.164 39.4394 138.997 39.4595L138.927 39.4658Z" fill="black"/>
<path d="M115.41 57.3403C114.586 57.3502 113.771 57.1643 113.032 56.7978C112.893 56.7094 112.794 56.5708 112.755 56.411C112.716 56.2511 112.74 56.0822 112.822 55.9397C112.905 55.7972 113.039 55.692 113.197 55.6461C113.355 55.6003 113.525 55.6172 113.671 55.6936C113.817 55.7733 117.101 57.5509 120.462 52.8054C120.508 52.7327 120.569 52.6701 120.641 52.6215C120.712 52.5729 120.792 52.5393 120.877 52.5228C120.962 52.5062 121.049 52.5071 121.134 52.5252C121.218 52.5434 121.298 52.5785 121.369 52.6284C121.439 52.6784 121.499 52.7421 121.544 52.8158C121.589 52.8894 121.619 52.9715 121.631 53.0569C121.644 53.1424 121.639 53.2295 121.616 53.313C121.594 53.3965 121.555 53.4746 121.502 53.5426C119.322 56.6222 117.05 57.3403 115.41 57.3403Z" fill="black"/>
<path d="M119.329 40.2538C120.101 40.2538 120.727 39.628 120.727 38.856C120.727 38.084 120.101 37.4582 119.329 37.4582C118.557 37.4582 117.931 38.084 117.931 38.856C117.931 39.628 118.557 40.2538 119.329 40.2538Z" fill="black"/>
<path d="M102.967 46.1739C103.739 46.1739 104.365 45.5481 104.365 44.7761C104.365 44.0041 103.739 43.3783 102.967 43.3783C102.195 43.3783 101.569 44.0041 101.569 44.7761C101.569 45.5481 102.195 46.1739 102.967 46.1739Z" fill="black"/>
<path d="M102.613 52.4288C99.4056 52.4288 96.4281 49.8439 95.659 46.1579C94.791 42.0092 97.0472 38.0137 100.685 37.251C101.586 37.0725 102.515 37.0923 103.407 37.3088C104.299 37.5254 105.133 37.9337 105.852 38.5052C107.409 39.7224 108.477 41.4586 108.861 43.3974C109.287 45.3274 109.003 47.3459 108.064 49.0843C107.635 49.8963 107.034 50.6051 106.303 51.1612C105.572 51.7173 104.729 52.1074 103.832 52.3044C103.431 52.3869 103.022 52.4286 102.613 52.4288ZM101.914 38.3871C101.592 38.3886 101.271 38.4228 100.957 38.4892C98.0046 39.1051 96.1919 42.4241 96.9164 45.8835C97.6408 49.3428 100.631 51.6565 103.58 51.0406C104.297 50.8808 104.971 50.566 105.555 50.1184C106.138 49.6708 106.616 49.1011 106.956 48.4493C107.744 46.9802 107.978 45.2765 107.614 43.6495C107.298 42.0068 106.399 40.5334 105.083 39.5009C104.176 38.7952 103.063 38.4082 101.914 38.3998V38.3871Z" fill="black"/>
<path d="M108.782 43.6494C108.63 43.6483 108.484 43.5934 108.369 43.4946C108.255 43.3957 108.179 43.2593 108.156 43.1098C108.132 42.9602 108.163 42.8072 108.242 42.678C108.321 42.5489 108.443 42.452 108.587 42.4048L114.35 40.5474C114.507 40.5084 114.674 40.5305 114.815 40.6092C114.956 40.688 115.063 40.8176 115.112 40.9717C115.162 41.1259 115.151 41.293 115.082 41.4394C115.012 41.5858 114.89 41.7004 114.74 41.7601L108.979 43.6207C108.915 43.6396 108.849 43.6493 108.782 43.6494Z" fill="black"/>
<path d="M111.647 50.4597C111.322 50.4683 110.998 50.4057 110.7 50.2761C110.401 50.1466 110.134 49.9533 109.918 49.7098C109.279 48.9343 109.388 47.8716 109.691 47.1982C109.907 46.7263 110.258 46.3288 110.7 46.0557L108.073 39.0349C108.025 38.8792 108.038 38.711 108.11 38.5647C108.181 38.4184 108.306 38.305 108.459 38.2479C108.612 38.1908 108.78 38.1942 108.93 38.2574C109.081 38.3207 109.201 38.439 109.267 38.5881L112.33 46.7546L111.692 46.9652C111.509 47.0258 111.339 47.1225 111.194 47.2497C111.049 47.3769 110.931 47.5319 110.846 47.7056C110.731 47.9577 110.594 48.5258 110.885 48.8704C111.175 49.2151 111.842 49.3172 112.461 48.9183C112.531 48.8668 112.611 48.8301 112.695 48.8104C112.78 48.7907 112.867 48.7885 112.953 48.8038C113.038 48.8191 113.119 48.8517 113.192 48.8996C113.264 48.9474 113.326 49.0095 113.374 49.0821C113.421 49.1546 113.454 49.2361 113.469 49.3216C113.484 49.4071 113.481 49.4947 113.461 49.5791C113.441 49.6635 113.404 49.743 113.352 49.8127C113.301 49.8823 113.235 49.9407 113.16 49.9842C112.712 50.2857 112.187 50.4509 111.647 50.4597Z" fill="black"/>
<path d="M116.573 25.4467C124.65 23.7578 130.184 17.5399 128.933 11.5586C127.683 5.57738 120.121 2.09775 112.044 3.78667C103.966 5.4756 98.432 11.6935 99.6826 17.6748C100.933 23.656 108.495 27.1357 116.573 25.4467Z" fill="black"/>
<path d="M141.212 25.4941L133.205 27.5749C131.025 28.1406 128.71 27.8177 126.769 26.6771C124.828 25.5364 123.419 23.6715 122.852 21.4922L121.164 14.9947L137.388 10.779L141.212 25.4941Z" fill="black"/>
<path d="M96.2525 33.6447C102.287 33.6447 107.18 28.7525 107.18 22.7177C107.18 16.6828 102.287 11.7906 96.2525 11.7906C90.2177 11.7906 85.3255 16.6828 85.3255 22.7177C85.3255 28.7525 90.2177 33.6447 96.2525 33.6447Z" fill="black"/>
<path d="M126.053 37.4456C125.904 37.446 125.76 37.3944 125.645 37.2998C125.531 37.2052 125.452 37.0736 125.425 36.9275C125.397 36.7815 125.42 36.6303 125.492 36.5C125.564 36.3696 125.678 36.2684 125.817 36.2138L137.765 31.4268C137.844 31.3905 137.929 31.3705 138.016 31.3682C138.102 31.3658 138.188 31.3812 138.269 31.4133C138.35 31.4453 138.423 31.4935 138.484 31.5548C138.545 31.6161 138.593 31.6892 138.626 31.7697C138.658 31.8502 138.673 31.9364 138.671 32.0231C138.669 32.1097 138.649 32.195 138.612 32.2737C138.576 32.3524 138.524 32.4229 138.459 32.4808C138.395 32.5388 138.319 32.583 138.237 32.6108L126.289 37.3977C126.214 37.4278 126.134 37.444 126.053 37.4456Z" fill="black"/>
<path d="M80.9342 139.156L78.1418 176.449L79.1216 185.599H104.279L101.285 140.458L80.9342 139.156Z" fill="white"/>
<path d="M104.962 186.237H78.5472L77.5037 176.459L80.3471 138.482L101.885 139.858L104.962 186.237ZM79.6961 184.96H103.596L100.685 141.058L81.5375 139.832L78.7834 176.44L79.6961 184.96Z" fill="black"/>
<path d="M97.2099 79.0315C96.1387 79.4648 95.1082 79.9924 94.1303 80.608C86.8222 85.2162 84.416 93.6923 82.565 101.961C80.5992 110.753 77.7047 130.98 76.6898 146.687C84.617 147.191 93.8718 147.699 101.799 148.206L97.2099 79.0315Z" fill="black"/>
<path d="M90.1411 110.38H13.6105C13.4412 110.38 13.2789 110.312 13.1592 110.193C13.0395 110.073 12.9722 109.911 12.9722 109.741C12.9722 109.572 13.0395 109.41 13.1592 109.29C13.2789 109.17 13.4412 109.103 13.6105 109.103H90.1411C90.3104 109.103 90.4728 109.17 90.5925 109.29C90.7122 109.41 90.7794 109.572 90.7794 109.741C90.7794 109.911 90.7122 110.073 90.5925 110.193C90.4728 110.312 90.3104 110.38 90.1411 110.38Z" fill="black"/>
<path d="M52.4965 110.028H20.7367C20.0968 110.028 19.4833 109.773 19.0305 109.321C18.5777 108.869 18.3225 108.256 18.3209 107.616V103.1C18.3217 102.46 18.5765 101.846 19.0294 101.393C19.4822 100.94 20.0962 100.685 20.7367 100.684H52.4965C53.137 100.685 53.751 100.94 54.2038 101.393C54.6567 101.846 54.9115 102.46 54.9124 103.1V107.619C54.9098 108.258 54.6543 108.871 54.2016 109.322C53.7489 109.774 53.1359 110.028 52.4965 110.028ZM20.7367 101.958C20.5871 101.958 20.4389 101.987 20.3007 102.044C20.1625 102.102 20.0369 102.186 19.9311 102.291C19.8253 102.397 19.7414 102.523 19.6841 102.661C19.6269 102.799 19.5974 102.947 19.5974 103.097V107.616C19.5982 107.917 19.7186 108.206 19.9322 108.419C20.1458 108.632 20.4351 108.752 20.7367 108.752H52.4965C52.7981 108.752 53.0875 108.632 53.301 108.419C53.5146 108.206 53.635 107.917 53.6358 107.616V103.1C53.6358 102.798 53.5158 102.508 53.3021 102.295C53.0885 102.081 52.7987 101.961 52.4965 101.961L20.7367 101.958Z" fill="black"/>
<path d="M52.4934 92.7413H20.7367C19.755 92.7413 18.9592 93.5371 18.9592 94.5188V99.0345C18.9592 100.016 19.755 100.812 20.7367 100.812H52.4934C53.4751 100.812 54.271 100.016 54.271 99.0345V94.5188C54.271 93.5371 53.4751 92.7413 52.4934 92.7413Z" fill="#FFBB45"/>
<path d="M60.8354 109.869H56.3133C55.6737 109.868 55.0605 109.614 54.6083 109.161C54.156 108.709 53.9015 108.096 53.9007 107.456V81.1568C53.9015 80.5172 54.156 79.904 54.6083 79.4517C55.0605 78.9995 55.6737 78.745 56.3133 78.7441H60.8354C61.475 78.745 62.0882 78.9995 62.5405 79.4517C62.9927 79.904 63.2472 80.5172 63.248 81.1568V107.456C63.2472 108.096 62.9927 108.709 62.5405 109.161C62.0882 109.614 61.475 109.868 60.8354 109.869ZM56.3133 80.0303C56.0123 80.0311 55.7238 80.1511 55.5109 80.3639C55.298 80.5768 55.1781 80.8653 55.1772 81.1664V107.466C55.1781 107.767 55.298 108.055 55.5109 108.268C55.7238 108.481 56.0123 108.601 56.3133 108.602H60.8354C61.1365 108.601 61.4249 108.481 61.6378 108.268C61.8507 108.055 61.9707 107.767 61.9715 107.466V81.1568C61.9707 80.8557 61.8507 80.5672 61.6378 80.3544C61.4249 80.1415 61.1365 80.0215 60.8354 80.0207L56.3133 80.0303Z" fill="black"/>
<path d="M69.4711 79.3824H64.9554C63.9737 79.3824 63.1779 80.1783 63.1779 81.16V107.456C63.1779 108.438 63.9737 109.234 64.9554 109.234H69.4711C70.4528 109.234 71.2487 108.438 71.2487 107.456V81.16C71.2487 80.1783 70.4528 79.3824 69.4711 79.3824Z" fill="#FFC1EB"/>
<path d="M136.406 83.0654C132.17 83.0248 128.034 81.7831 124.476 79.4847C124.342 79.3894 124.249 79.2456 124.219 79.0837C124.188 78.9217 124.221 78.754 124.311 78.6158C124.4 78.4776 124.54 78.3796 124.701 78.3423C124.862 78.3049 125.03 78.3312 125.172 78.4156C127.154 79.6922 132.512 82.6026 139.287 81.5718C148.628 80.1549 153.256 72.5692 154.089 71.0629C154.127 70.986 154.181 70.9177 154.246 70.8621C154.312 70.8065 154.388 70.7647 154.47 70.7392C154.552 70.7137 154.638 70.705 154.724 70.7137C154.809 70.7224 154.892 70.7483 154.967 70.7898C155.043 70.8313 155.109 70.8875 155.162 70.9552C155.215 71.0229 155.254 71.1006 155.276 71.1836C155.298 71.2666 155.303 71.3533 155.291 71.4384C155.279 71.5234 155.25 71.6052 155.206 71.6788C154.322 73.2744 149.41 81.3261 139.479 82.8324C138.462 82.9881 137.434 83.066 136.406 83.0654Z" fill="white"/>
<path d="M113.222 86.8575L98.597 90.708C96.6676 91.216 95.5152 93.1919 96.0232 95.1213L103.865 124.906C104.373 126.835 106.349 127.987 108.278 127.479L122.903 123.629C124.833 123.121 125.985 121.145 125.477 119.216L117.635 89.4313C117.127 87.5018 115.152 86.3495 113.222 86.8575Z" fill="#FFC1EB"/>
<path d="M112.933 92.0561L112.691 92.1105C111.905 92.2868 111.41 93.0668 111.587 93.8527L113.015 100.224C113.192 101.01 113.972 101.504 114.758 101.328L115.001 101.273C115.787 101.097 116.281 100.317 116.104 99.5312L114.676 93.16C114.499 92.3741 113.719 91.8798 112.933 92.0561Z" fill="white"/>
<path d="M120.379 45.775C117.188 45.775 114.255 43.2921 113.511 39.7402C112.678 35.7224 114.954 31.8417 118.598 31.0758C122.243 30.3099 125.884 32.9619 126.723 36.9797C127.562 40.9976 125.284 44.8846 121.643 45.6441C121.227 45.7323 120.804 45.7761 120.379 45.775ZM119.852 32.2215C119.517 32.2207 119.182 32.2549 118.853 32.3236C115.901 32.9427 114.066 36.1532 114.762 39.4785C115.458 42.8039 118.423 45.0123 121.374 44.3963C124.326 43.7804 126.161 40.5668 125.466 37.2414C124.847 34.2895 122.453 32.2215 119.859 32.2215H119.852Z" fill="black"/>
<path d="M179.562 126.496L101.161 135.575L100.229 124.495L177.28 115.393L179.562 126.496Z" fill="#C7B8F8"/>
<path d="M185.149 150.855L101.978 160.26L101.177 148.28L182.529 138.789L185.149 150.855Z" fill="#C7B8F8"/>
<path d="M128.012 112.55C128.012 112.55 117.564 113.475 112.113 104.115C111.602 103.232 110.905 102.47 110.071 101.881C108.638 100.873 106.493 100.241 104.279 102.771C104.279 102.771 100.679 98.0068 98.0205 100.729C98.0205 100.729 96.1249 103.132 98.6588 107.182C98.6588 107.182 94.609 108.864 98.6205 115.945C99.2364 117.033 99.8364 118.131 100.369 119.261C102.527 123.812 110.199 136.733 128.485 138.61C129.677 138.737 130.807 139.204 131.743 139.953L175.094 174.372C179.087 177.572 183.752 179.829 188.74 180.974C195.875 182.57 208.72 181.734 215.368 172.466C219.271 166.947 220.957 160.163 220.091 153.459L218.077 137.088L181.971 143.004L145.523 120.151C144.306 119.385 143.315 118.309 142.651 117.033C140.535 112.996 135.206 103.63 129.292 99.5546C129.088 99.4142 128.887 99.277 128.689 99.1302C127.412 98.1728 125.817 97.3813 124.205 97.3558C121.652 97.3175 119.488 99.6759 121.065 102.069C121.757 103.122 122.871 103.984 123.902 104.693C124.971 105.42 125.88 106.358 126.574 107.448C127.267 108.539 127.731 109.761 127.936 111.037C128.012 111.537 128.037 112.044 128.012 112.55Z" fill="white"/>
<path d="M116.677 119.2C116.579 119.2 116.483 119.177 116.396 119.133C114.698 118.306 113.106 117.275 111.657 116.063C106.746 111.943 104.598 106.643 103.66 102.921C103.617 102.757 103.642 102.583 103.728 102.437C103.814 102.291 103.955 102.185 104.119 102.143C104.283 102.1 104.458 102.125 104.604 102.211C104.75 102.297 104.855 102.438 104.898 102.602C105.788 106.142 107.827 111.177 112.477 115.08C113.843 116.225 115.343 117.199 116.945 117.981C117.075 118.044 117.18 118.15 117.243 118.28C117.305 118.411 117.321 118.559 117.289 118.7C117.256 118.841 117.176 118.966 117.063 119.056C116.949 119.146 116.809 119.195 116.664 119.194L116.677 119.2Z" fill="black"/>
<path d="M112.579 124.594C112.48 124.595 112.383 124.572 112.295 124.527C111.439 124.142 110.641 123.637 109.927 123.027C109.682 122.829 109.372 122.583 108.97 122.258C104.183 118.553 100.424 113.418 98.0747 107.409C98.0398 107.33 98.0212 107.245 98.02 107.159C98.0188 107.073 98.0351 106.987 98.0678 106.907C98.1006 106.828 98.1491 106.755 98.2105 106.695C98.2719 106.635 98.3448 106.587 98.425 106.556C98.5052 106.524 98.591 106.509 98.6771 106.512C98.7632 106.514 98.8479 106.534 98.9261 106.571C99.0043 106.607 99.0743 106.658 99.132 106.722C99.1898 106.786 99.2339 106.861 99.2619 106.943C101.531 112.738 105.156 117.685 109.752 121.249C110.176 121.568 110.489 121.83 110.738 122.031C111.381 122.586 112.103 123.043 112.879 123.387C113.006 123.453 113.108 123.559 113.168 123.688C113.228 123.818 113.242 123.964 113.209 124.103C113.176 124.242 113.097 124.366 112.985 124.455C112.873 124.544 112.735 124.593 112.592 124.594H112.579Z" fill="black"/>
<path d="M131.21 186.882H77.5515V175.3H131.21C131.923 175.301 132.607 175.585 133.111 176.089C133.616 176.594 133.9 177.277 133.9 177.991V184.195C133.9 184.908 133.616 185.591 133.111 186.095C132.607 186.599 131.923 186.882 131.21 186.882Z" fill="black"/>
<path d="M83.5958 186.882H20.826C19.6565 186.893 18.5145 186.527 17.5701 185.837C16.6258 185.147 15.9298 184.17 15.5859 183.052L0.213395 130.938C-0.782291 127.562 1.83139 124.198 5.45352 124.198H64.6586C65.8795 124.187 67.0685 124.588 68.0333 125.336C68.9981 126.084 69.6823 127.136 69.9753 128.321L83.5958 186.882Z" fill="black"/>
<path d="M38.008 169.183C42.8126 169.183 46.7075 165.288 46.7075 160.483C46.7075 155.678 42.8126 151.784 38.008 151.784C33.2034 151.784 29.3085 155.678 29.3085 160.483C29.3085 165.288 33.2034 169.183 38.008 169.183Z" fill="#FFC1EB"/>
<path d="M36.0965 154.276C35.9535 154.276 35.8148 154.227 35.7025 154.139C35.5903 154.05 35.511 153.927 35.4774 153.788L34.437 149.527C34.4171 149.446 34.4134 149.361 34.4262 149.278C34.439 149.195 34.4681 149.116 34.5116 149.044C34.5552 148.972 34.6124 148.91 34.6801 148.86C34.7478 148.811 34.8246 148.775 34.9061 148.755C34.9876 148.735 35.0723 148.732 35.1552 148.744C35.2381 148.757 35.3177 148.786 35.3894 148.83C35.4611 148.873 35.5236 148.931 35.5732 148.998C35.6228 149.066 35.6585 149.143 35.6784 149.224L36.7156 153.485C36.7388 153.579 36.7404 153.677 36.7201 153.771C36.6999 153.866 36.6584 153.955 36.5987 154.031C36.5391 154.107 36.4628 154.169 36.3758 154.211C36.2888 154.254 36.1933 154.276 36.0965 154.276Z" fill="#8494FB"/>
<path d="M225.172 136.647L182.759 143.745L167.186 64.1854L178.24 64.3417C185.099 64.4007 191.758 66.6555 197.241 70.7754C200.099 72.9339 202.53 75.606 204.409 78.6547C205.758 80.8698 206.799 83.2587 207.501 85.7554L225.172 136.647Z" fill="black"/>
<path d="M243.64 44.7761H196.961C193.802 44.7761 191.242 47.3365 191.242 50.4949V80.3559C191.242 83.5144 193.802 86.0747 196.961 86.0747H243.64C246.798 86.0747 249.359 83.5144 249.359 80.3559V50.4949C249.359 47.3365 246.798 44.7761 243.64 44.7761Z" fill="white"/>
<path d="M243.64 86.713H196.97C195.283 86.7088 193.667 86.0371 192.474 84.8447C191.281 83.6523 190.609 82.0362 190.603 80.3495V50.4981C190.609 48.8119 191.282 47.1966 192.475 46.0049C193.668 44.8132 195.284 44.142 196.97 44.1378H243.64C245.325 44.1437 246.939 44.8157 248.131 46.0072C249.322 47.1987 249.994 48.813 250 50.4981V80.3495C249.995 82.0351 249.323 83.6503 248.132 84.8425C246.94 86.0347 245.325 86.7071 243.64 86.713ZM196.97 45.4143C195.624 45.421 194.335 45.9589 193.384 46.9109C192.432 47.8629 191.895 49.1521 191.89 50.4981V80.3495C191.89 81.6975 192.425 82.9905 193.377 83.9443C194.33 84.8981 195.622 85.4348 196.97 85.4364H243.64C244.988 85.4356 246.281 84.8993 247.235 83.9454C248.188 82.9915 248.723 81.6981 248.723 80.3495V50.4981C248.718 49.1516 248.18 47.8619 247.228 46.9098C246.276 45.9577 244.986 45.4202 243.64 45.4143H196.97Z" fill="black"/>
<path d="M240.696 59H205.304C204.958 59 204.627 58.9473 204.382 58.8535C204.137 58.7598 204 58.6326 204 58.5C204 58.3674 204.137 58.2402 204.382 58.1464C204.627 58.0527 204.958 58 205.304 58H240.696C241.042 58 241.373 58.0527 241.618 58.1464C241.863 58.2402 242 58.3674 242 58.5C242 58.6326 241.863 58.7598 241.618 58.8535C241.373 58.9473 241.042 59 240.696 59Z" fill="black"/>
<path d="M240.696 66H205.304C204.958 66 204.627 65.8946 204.382 65.7071C204.137 65.5196 204 65.2652 204 65C204 64.7348 204.137 64.4804 204.382 64.2929C204.627 64.1053 204.958 64 205.304 64H240.696C241.042 64 241.373 64.1053 241.618 64.2929C241.863 64.4804 242 64.7348 242 65C242 65.2652 241.863 65.5196 241.618 65.7071C241.373 65.8946 241.042 66 240.696 66Z" fill="black"/>
<path d="M234.373 73H205.627C205.196 73 204.782 72.8946 204.477 72.7071C204.171 72.5196 204 72.2652 204 72C204 71.7348 204.171 71.4804 204.477 71.2929C204.782 71.1053 205.196 71 205.627 71H234.373C234.804 71 235.218 71.1053 235.523 71.2929C235.829 71.4804 236 71.7348 236 72C236 72.2652 235.829 72.5196 235.523 72.7071C235.218 72.8946 234.804 73 234.373 73Z" fill="black"/>
<path d="M192.02 149.011C191.909 149.013 191.798 148.986 191.701 148.931L182.207 143.691C182.066 143.605 181.963 143.469 181.921 143.309C181.878 143.15 181.899 142.981 181.978 142.836C182.058 142.692 182.19 142.584 182.348 142.535C182.505 142.486 182.676 142.5 182.823 142.574L192.317 147.814C192.442 147.883 192.54 147.991 192.596 148.122C192.651 148.253 192.662 148.399 192.625 148.537C192.588 148.674 192.507 148.796 192.393 148.882C192.279 148.967 192.14 149.013 191.998 149.011H192.02Z" fill="black"/>
<path d="M90.1411 67.1373H13.6105C13.4412 67.1373 13.2789 67.07 13.1592 66.9503C13.0395 66.8306 12.9722 66.6683 12.9722 66.499C12.9722 66.3297 13.0395 66.1674 13.1592 66.0477C13.2789 65.928 13.4412 65.8608 13.6105 65.8608H90.1411C90.3104 65.8608 90.4728 65.928 90.5925 66.0477C90.7122 66.1674 90.7794 66.3297 90.7794 66.499C90.7794 66.6683 90.7122 66.8306 90.5925 66.9503C90.4728 67.07 90.3104 67.1373 90.1411 67.1373Z" fill="black"/>
<path d="M66.6117 65.577C72.8739 65.577 77.9504 60.5005 77.9504 54.2383C77.9504 47.9761 72.8739 42.8996 66.6117 42.8996C60.3495 42.8996 55.273 47.9761 55.273 54.2383C55.273 60.5005 60.3495 65.577 66.6117 65.577Z" fill="white"/>
<path d="M43.4939 66.6492H27.1927C25.6858 66.6475 24.2411 66.0481 23.1756 64.9826C22.11 63.9171 21.5107 62.4724 21.509 60.9655V37.5317C21.509 36.0237 22.1076 34.5774 23.1733 33.5105C24.239 32.4435 25.6847 31.8433 27.1927 31.8416H43.5034C45.0103 31.8433 46.455 32.4427 47.5206 33.5082C48.5861 34.5738 49.1855 36.0184 49.1871 37.5253V60.9591C49.1871 61.7066 49.0399 62.4468 48.7537 63.1373C48.4676 63.8279 48.0481 64.4553 47.5194 64.9837C46.9907 65.5121 46.3631 65.9312 45.6723 66.217C44.9816 66.5027 44.2414 66.6496 43.4939 66.6492ZM27.1927 33.1181C26.0243 33.1198 24.9043 33.5847 24.0782 34.4108C23.252 35.237 22.7872 36.357 22.7855 37.5253V60.9591C22.7851 61.5383 22.8987 62.1119 23.12 62.6471C23.3412 63.1824 23.6658 63.6688 24.075 64.0786C24.4843 64.4885 24.9702 64.8137 25.5051 65.0357C26.0401 65.2578 26.6135 65.3722 27.1927 65.3727H43.5034C44.6718 65.371 45.7918 64.9061 46.6179 64.08C47.4441 63.2538 47.9089 62.1338 47.9106 60.9655V37.5317C47.9106 36.9518 47.7964 36.3777 47.5744 35.842C47.3524 35.3063 47.027 34.8196 46.6168 34.4097C46.2066 33.9998 45.7197 33.6748 45.1838 33.4532C44.648 33.2316 44.0737 33.1177 43.4939 33.1181H27.1927Z" fill="black"/>
<path d="M48.2011 58.2307H22.1377C21.9684 58.2307 21.8061 58.1634 21.6864 58.0437C21.5667 57.924 21.4995 57.7617 21.4995 57.5924C21.4995 57.4231 21.5667 57.2608 21.6864 57.1411C21.8061 57.0214 21.9684 56.9541 22.1377 56.9541H48.2011C48.3704 56.9541 48.5327 57.0214 48.6524 57.1411C48.7721 57.2608 48.8394 57.4231 48.8394 57.5924C48.8394 57.7617 48.7721 57.924 48.6524 58.0437C48.5327 58.1634 48.3704 58.2307 48.2011 58.2307Z" fill="black"/>
<path d="M32.6179 63.6016C33.4727 63.6016 34.1657 62.9086 34.1657 62.0538C34.1657 61.199 33.4727 60.506 32.6179 60.506C31.7631 60.506 31.0701 61.199 31.0701 62.0538C31.0701 62.9086 31.7631 63.6016 32.6179 63.6016Z" fill="white"/>
<path d="M38.0495 63.6016C38.9043 63.6016 39.5973 62.9086 39.5973 62.0538C39.5973 61.199 38.9043 60.506 38.0495 60.506C37.1947 60.506 36.5017 61.199 36.5017 62.0538C36.5017 62.9086 37.1947 63.6016 38.0495 63.6016Z" fill="white"/>
<path d="M64.2342 45.8641C64.0885 45.8637 63.9473 45.8135 63.8341 45.7218C63.7209 45.6301 63.6425 45.5024 63.6119 45.3599C61.9524 37.7008 63.8257 32.4607 65.6894 29.4034C67.7255 26.0812 70.1573 24.5973 70.2498 24.5367C70.395 24.4495 70.5688 24.4235 70.7331 24.4645C70.8974 24.5055 71.0386 24.6101 71.1258 24.7553C71.213 24.9004 71.2389 25.0743 71.198 25.2385C71.157 25.4028 71.0524 25.5441 70.9072 25.6313C70.5243 25.8642 61.8758 31.3054 64.8437 45.0791C64.8788 45.2441 64.8472 45.4163 64.7557 45.558C64.6642 45.6997 64.5203 45.7995 64.3555 45.8354C64.316 45.8486 64.2754 45.8582 64.2342 45.8641Z" fill="black"/>
<path d="M78.5727 25.459L75.825 24.8623C75.8026 24.7123 75.7739 24.5431 75.7388 24.4123L78.1387 23.0656C78.5914 22.7607 78.9128 22.2967 79.0391 21.7658C79.1654 21.2348 79.0873 20.6758 78.8204 20.1998C78.5534 19.7238 78.1171 19.3656 77.5982 19.1965C77.0793 19.0274 76.5158 19.0597 76.0196 19.2871L73.4953 20.704C73.4538 20.7263 73.4219 20.7551 73.3836 20.7806C73.2623 20.6912 73.1379 20.6051 73.0102 20.5253L73.5655 17.9563C73.687 17.3934 73.5799 16.8054 73.2677 16.3215C72.9556 15.8376 72.4641 15.4976 71.9012 15.3761C71.3384 15.2547 70.7504 15.3618 70.2665 15.6739C69.7826 15.986 69.4425 16.4775 69.3211 17.0404L68.7658 19.5934C68.551 19.6221 68.3379 19.6626 68.1275 19.7147C68.0818 19.6292 68.0317 19.5462 67.9775 19.4658L66.2351 17.1616C65.8885 16.7021 65.3735 16.399 64.8035 16.3191C64.2334 16.2392 63.655 16.389 63.1954 16.7356C62.7358 17.0822 62.4327 17.5972 62.3528 18.1672C62.2729 18.7373 62.4227 19.3157 62.7693 19.7753L64.5118 22.089C64.5118 22.1082 64.5437 22.1209 64.5596 22.1401C64.499 22.2231 64.448 22.3092 64.3905 22.3922L61.7322 21.8178C61.1694 21.6964 60.5814 21.8033 60.0973 22.115C59.6133 22.4268 59.2727 22.9178 59.1504 23.4804C59.0899 23.7591 59.0849 24.047 59.1357 24.3277C59.1865 24.6083 59.2921 24.8762 59.4466 25.116C59.601 25.3557 59.8012 25.5627 60.0356 25.7251C60.2701 25.8874 60.5343 26.002 60.8131 26.0622L63.4491 26.6334C63.4491 26.6973 63.465 26.7611 63.4746 26.8249H63.4523L60.9248 28.2418C60.4447 28.535 60.0969 29.0029 59.9547 29.5471C59.8124 30.0913 59.8867 30.6695 60.162 31.1601C60.4372 31.6507 60.892 32.0154 61.4306 32.1777C61.9692 32.3399 62.5498 32.2869 63.0502 32.0299L65.5777 30.613C65.5968 30.613 65.6096 30.5875 65.6287 30.5779C65.8315 30.7474 66.0447 30.904 66.267 31.047L65.7149 33.6C65.6469 33.8818 65.6359 34.1744 65.6826 34.4605C65.7294 34.7466 65.8329 35.0204 65.9871 35.2659C66.1412 35.5114 66.343 35.7235 66.5804 35.8899C66.8178 36.0562 67.086 36.1734 67.3694 36.2345C67.6528 36.2956 67.9455 36.2994 68.2304 36.2457C68.5152 36.1919 68.7864 36.0818 69.0281 35.9216C69.2697 35.7615 69.4769 35.5546 69.6373 35.3132C69.7978 35.0718 69.9084 34.8007 69.9625 34.516L70.5114 31.9629C70.671 31.9406 70.8306 31.9118 70.9869 31.8767L72.6751 34.1106C72.8371 34.3592 73.0483 34.572 73.2956 34.7358C73.5429 34.8997 73.8212 35.0111 74.1132 35.0634C74.4053 35.1156 74.7049 35.1075 74.9937 35.0395C75.2825 34.9716 75.5543 34.8452 75.7924 34.6682C76.0305 34.4912 76.2299 34.2674 76.3782 34.0104C76.5265 33.7535 76.6206 33.4689 76.6547 33.1741C76.6889 32.8794 76.6623 32.5809 76.5767 32.2968C76.491 32.0128 76.3482 31.7492 76.1569 31.5225L74.6569 29.5279C74.7527 29.3971 74.8452 29.2631 74.9314 29.1227L77.6536 29.713C77.9323 29.7736 78.2202 29.7786 78.5008 29.7277C78.7815 29.6769 79.0493 29.5713 79.2891 29.4169C79.5289 29.2624 79.7359 29.0623 79.8982 28.8278C80.0606 28.5933 80.1751 28.3291 80.2353 28.0504C80.2973 27.771 80.3033 27.4821 80.2532 27.2004C80.2031 26.9187 80.0977 26.6496 79.9431 26.4088C79.7886 26.1679 79.588 25.96 79.3528 25.797C79.1176 25.634 78.8524 25.5192 78.5727 25.459Z" fill="#FFC1EB"/>
<path d="M78.5727 25.459L75.825 24.8623C75.8026 24.7123 75.7739 24.5431 75.7388 24.4123L78.1387 23.0656C78.5914 22.7607 78.9128 22.2967 79.0391 21.7658C79.1654 21.2348 79.0873 20.6758 78.8204 20.1998C78.5534 19.7238 78.1171 19.3656 77.5982 19.1965C77.0793 19.0274 76.5158 19.0597 76.0196 19.2871L73.4953 20.704C73.4538 20.7263 73.4219 20.7551 73.3836 20.7806C73.2623 20.6912 73.1379 20.6051 73.0102 20.5253L73.5655 17.9563C73.687 17.3934 73.5799 16.8054 73.2677 16.3215C72.9556 15.8376 72.4641 15.4976 71.9012 15.3761C71.3384 15.2547 70.7504 15.3618 70.2665 15.6739C69.7826 15.986 69.4425 16.4775 69.3211 17.0404L68.7658 19.5934C68.551 19.6221 68.3379 19.6626 68.1275 19.7147C68.0818 19.6292 68.0317 19.5462 67.9775 19.4658L66.2351 17.1616C65.8885 16.7021 65.3735 16.399 64.8035 16.3191C64.2334 16.2392 63.655 16.389 63.1954 16.7356C62.7358 17.0822 62.4327 17.5972 62.3528 18.1672C62.2729 18.7373 62.4227 19.3157 62.7693 19.7753L64.5118 22.089C64.5118 22.1082 64.5437 22.1209 64.5596 22.1401C64.499 22.2231 64.448 22.3092 64.3905 22.3922L61.7322 21.8178C61.1694 21.6964 60.5814 21.8033 60.0973 22.115C59.6133 22.4268 59.2727 22.9178 59.1504 23.4804C59.0899 23.7591 59.0849 24.047 59.1357 24.3277C59.1865 24.6083 59.2921 24.8762 59.4466 25.116C59.601 25.3557 59.8012 25.5627 60.0356 25.7251C60.2701 25.8874 60.5343 26.002 60.8131 26.0622L63.4491 26.6334C63.4491 26.6973 63.465 26.7611 63.4746 26.8249H63.4523L60.9248 28.2418C60.4447 28.535 60.0969 29.0029 59.9547 29.5471C59.8124 30.0913 59.8867 30.6695 60.162 31.1601C60.4372 31.6507 60.892 32.0154 61.4306 32.1777C61.9692 32.3399 62.5498 32.2869 63.0502 32.0299L65.5777 30.613C65.5968 30.613 65.6096 30.5875 65.6287 30.5779C65.8315 30.7474 66.0447 30.904 66.267 31.047L65.7149 33.6C65.6469 33.8818 65.6359 34.1744 65.6826 34.4605C65.7294 34.7466 65.8329 35.0204 65.9871 35.2659C66.1412 35.5114 66.343 35.7235 66.5804 35.8899C66.8178 36.0562 67.086 36.1734 67.3694 36.2345C67.6528 36.2956 67.9455 36.2994 68.2304 36.2457C68.5152 36.1919 68.7864 36.0818 69.0281 35.9216C69.2697 35.7615 69.4769 35.5546 69.6373 35.3132C69.7978 35.0718 69.9084 34.8007 69.9625 34.516L70.5114 31.9629C70.671 31.9406 70.8306 31.9118 70.9869 31.8767L72.6751 34.1106C72.8371 34.3592 73.0483 34.572 73.2956 34.7358C73.5429 34.8997 73.8212 35.0111 74.1132 35.0634C74.4053 35.1156 74.7049 35.1075 74.9937 35.0395C75.2825 34.9716 75.5543 34.8452 75.7924 34.6682C76.0305 34.4912 76.2299 34.2674 76.3782 34.0104C76.5265 33.7535 76.6206 33.4689 76.6547 33.1741C76.6889 32.8794 76.6623 32.5809 76.5767 32.2968C76.491 32.0128 76.3482 31.7492 76.1569 31.5225L74.6569 29.5279C74.7527 29.3971 74.8452 29.2631 74.9314 29.1227L77.6536 29.713C77.9323 29.7736 78.2202 29.7786 78.5008 29.7277C78.7815 29.6769 79.0493 29.5713 79.2891 29.4169C79.5289 29.2624 79.7359 29.0623 79.8982 28.8278C80.0606 28.5933 80.1751 28.3291 80.2353 28.0504C80.2973 27.771 80.3033 27.4821 80.2532 27.2004C80.2031 26.9187 80.0977 26.6496 79.9431 26.4088C79.7886 26.1679 79.588 25.96 79.3528 25.797C79.1176 25.634 78.8524 25.5192 78.5727 25.459Z" fill="#FFC1EB"/>
<path d="M78.5727 25.459L75.825 24.8623C75.8026 24.7123 75.7739 24.5431 75.7388 24.4123L78.1387 23.0656C78.5914 22.7607 78.9128 22.2967 79.0391 21.7658C79.1654 21.2348 79.0873 20.6758 78.8204 20.1998C78.5534 19.7238 78.1171 19.3656 77.5982 19.1965C77.0793 19.0274 76.5158 19.0597 76.0196 19.2871L73.4953 20.704C73.4538 20.7263 73.4219 20.7551 73.3836 20.7806C73.2623 20.6912 73.1379 20.6051 73.0102 20.5253L73.5655 17.9563C73.687 17.3934 73.5799 16.8054 73.2677 16.3215C72.9556 15.8376 72.4641 15.4976 71.9012 15.3761C71.3384 15.2547 70.7504 15.3618 70.2665 15.6739C69.7826 15.986 69.4425 16.4775 69.3211 17.0404L68.7658 19.5934C68.551 19.6221 68.3379 19.6626 68.1275 19.7147C68.0818 19.6292 68.0317 19.5462 67.9775 19.4658L66.2351 17.1616C65.8885 16.7021 65.3735 16.399 64.8035 16.3191C64.2334 16.2392 63.655 16.389 63.1954 16.7356C62.7358 17.0822 62.4327 17.5972 62.3528 18.1672C62.2729 18.7373 62.4227 19.3157 62.7693 19.7753L64.5118 22.089C64.5118 22.1082 64.5437 22.1209 64.5596 22.1401C64.499 22.2231 64.448 22.3092 64.3905 22.3922L61.7322 21.8178C61.1694 21.6964 60.5814 21.8033 60.0973 22.115C59.6133 22.4268 59.2727 22.9178 59.1504 23.4804C59.0899 23.7591 59.0849 24.047 59.1357 24.3277C59.1865 24.6083 59.2921 24.8762 59.4466 25.116C59.601 25.3557 59.8012 25.5627 60.0356 25.7251C60.2701 25.8874 60.5343 26.002 60.8131 26.0622L63.4491 26.6334C63.4491 26.6973 63.465 26.7611 63.4746 26.8249H63.4523L60.9248 28.2418C60.4447 28.535 60.0969 29.0029 59.9547 29.5471C59.8124 30.0913 59.8867 30.6695 60.162 31.1601C60.4372 31.6507 60.892 32.0154 61.4306 32.1777C61.9692 32.3399 62.5498 32.2869 63.0502 32.0299L65.5777 30.613C65.5968 30.613 65.6096 30.5875 65.6287 30.5779C65.8315 30.7474 66.0447 30.904 66.267 31.047L65.7149 33.6C65.6469 33.8818 65.6359 34.1744 65.6826 34.4605C65.7294 34.7466 65.8329 35.0204 65.9871 35.2659C66.1412 35.5114 66.343 35.7235 66.5804 35.8899C66.8178 36.0562 67.086 36.1734 67.3694 36.2345C67.6528 36.2956 67.9455 36.2994 68.2304 36.2457C68.5152 36.1919 68.7864 36.0818 69.0281 35.9216C69.2697 35.7615 69.4769 35.5546 69.6373 35.3132C69.7978 35.0718 69.9084 34.8007 69.9625 34.516L70.5114 31.9629C70.671 31.9406 70.8306 31.9118 70.9869 31.8767L72.6751 34.1106C72.8371 34.3592 73.0483 34.572 73.2956 34.7358C73.5429 34.8997 73.8212 35.0111 74.1132 35.0634C74.4053 35.1156 74.7049 35.1075 74.9937 35.0395C75.2825 34.9716 75.5543 34.8452 75.7924 34.6682C76.0305 34.4912 76.2299 34.2674 76.3782 34.0104C76.5265 33.7535 76.6206 33.4689 76.6547 33.1741C76.6889 32.8794 76.6623 32.5809 76.5767 32.2968C76.491 32.0128 76.3482 31.7492 76.1569 31.5225L74.6569 29.5279C74.7527 29.3971 74.8452 29.2631 74.9314 29.1227L77.6536 29.713C77.9323 29.7736 78.2202 29.7786 78.5008 29.7277C78.7815 29.6769 79.0493 29.5713 79.2891 29.4169C79.5289 29.2624 79.7359 29.0623 79.8982 28.8278C80.0606 28.5933 80.1751 28.3291 80.2353 28.0504C80.2973 27.771 80.3033 27.4821 80.2532 27.2004C80.2031 26.9187 80.0977 26.6496 79.9431 26.4088C79.7886 26.1679 79.588 25.96 79.3528 25.797C79.1176 25.634 78.8524 25.5192 78.5727 25.459Z" fill="#FFC1EB"/>
<path d="M78.5727 25.459L75.825 24.8623C75.8026 24.7123 75.7739 24.5431 75.7388 24.4123L78.1387 23.0656C78.5914 22.7607 78.9128 22.2967 79.0391 21.7658C79.1654 21.2348 79.0873 20.6758 78.8204 20.1998C78.5534 19.7238 78.1171 19.3656 77.5982 19.1965C77.0793 19.0274 76.5158 19.0597 76.0196 19.2871L73.4953 20.704C73.4538 20.7263 73.4219 20.7551 73.3836 20.7806C73.2623 20.6912 73.1379 20.6051 73.0102 20.5253L73.5655 17.9563C73.687 17.3934 73.5799 16.8054 73.2677 16.3215C72.9556 15.8376 72.4641 15.4976 71.9012 15.3761C71.3384 15.2547 70.7504 15.3618 70.2665 15.6739C69.7826 15.986 69.4425 16.4775 69.3211 17.0404L68.7658 19.5934C68.551 19.6221 68.3379 19.6626 68.1275 19.7147C68.0818 19.6292 68.0317 19.5462 67.9775 19.4658L66.2351 17.1616C65.8885 16.7021 65.3735 16.399 64.8035 16.3191C64.2334 16.2392 63.655 16.389 63.1954 16.7356C62.7358 17.0822 62.4327 17.5972 62.3528 18.1672C62.2729 18.7373 62.4227 19.3157 62.7693 19.7753L64.5118 22.089C64.5118 22.1082 64.5437 22.1209 64.5596 22.1401C64.499 22.2231 64.448 22.3092 64.3905 22.3922L61.7322 21.8178C61.1694 21.6964 60.5814 21.8033 60.0973 22.115C59.6133 22.4268 59.2727 22.9178 59.1504 23.4804C59.0899 23.7591 59.0849 24.047 59.1357 24.3277C59.1865 24.6083 59.2921 24.8762 59.4466 25.116C59.601 25.3557 59.8012 25.5627 60.0356 25.7251C60.2701 25.8874 60.5343 26.002 60.8131 26.0622L63.4491 26.6334C63.4491 26.6973 63.465 26.7611 63.4746 26.8249H63.4523L60.9248 28.2418C60.4447 28.535 60.0969 29.0029 59.9547 29.5471C59.8124 30.0913 59.8867 30.6695 60.162 31.1601C60.4372 31.6507 60.892 32.0154 61.4306 32.1777C61.9692 32.3399 62.5498 32.2869 63.0502 32.0299L65.5777 30.613C65.5968 30.613 65.6096 30.5875 65.6287 30.5779C65.8315 30.7474 66.0447 30.904 66.267 31.047L65.7149 33.6C65.6469 33.8818 65.6359 34.1744 65.6826 34.4605C65.7294 34.7466 65.8329 35.0204 65.9871 35.2659C66.1412 35.5114 66.343 35.7235 66.5804 35.8899C66.8178 36.0562 67.086 36.1734 67.3694 36.2345C67.6528 36.2956 67.9455 36.2994 68.2304 36.2457C68.5152 36.1919 68.7864 36.0818 69.0281 35.9216C69.2697 35.7615 69.4769 35.5546 69.6373 35.3132C69.7978 35.0718 69.9084 34.8007 69.9625 34.516L70.5114 31.9629C70.671 31.9406 70.8306 31.9118 70.9869 31.8767L72.6751 34.1106C72.8371 34.3592 73.0483 34.572 73.2956 34.7358C73.5429 34.8997 73.8212 35.0111 74.1132 35.0634C74.4053 35.1156 74.7049 35.1075 74.9937 35.0395C75.2825 34.9716 75.5543 34.8452 75.7924 34.6682C76.0305 34.4912 76.2299 34.2674 76.3782 34.0104C76.5265 33.7535 76.6206 33.4689 76.6547 33.1741C76.6889 32.8794 76.6623 32.5809 76.5767 32.2968C76.491 32.0128 76.3482 31.7492 76.1569 31.5225L74.6569 29.5279C74.7527 29.3971 74.8452 29.2631 74.9314 29.1227L77.6536 29.713C77.9323 29.7736 78.2202 29.7786 78.5008 29.7277C78.7815 29.6769 79.0493 29.5713 79.2891 29.4169C79.5289 29.2624 79.7359 29.0623 79.8982 28.8278C80.0606 28.5933 80.1751 28.3291 80.2353 28.0504C80.2973 27.771 80.3033 27.4821 80.2532 27.2004C80.2031 26.9187 80.0977 26.6496 79.9431 26.4088C79.7886 26.1679 79.588 25.96 79.3528 25.797C79.1176 25.634 78.8524 25.5192 78.5727 25.459Z" fill="#FFC1EB"/>
<path d="M78.5727 25.459L75.825 24.8623C75.8026 24.7123 75.7739 24.5431 75.7388 24.4123L78.1387 23.0656C78.5914 22.7607 78.9128 22.2967 79.0391 21.7658C79.1654 21.2348 79.0873 20.6758 78.8204 20.1998C78.5534 19.7238 78.1171 19.3656 77.5982 19.1965C77.0793 19.0274 76.5158 19.0597 76.0196 19.2871L73.4953 20.704C73.4538 20.7263 73.4219 20.7551 73.3836 20.7806C73.2623 20.6912 73.1379 20.6051 73.0102 20.5253L73.5655 17.9563C73.687 17.3934 73.5799 16.8054 73.2677 16.3215C72.9556 15.8376 72.4641 15.4976 71.9012 15.3761C71.3384 15.2547 70.7504 15.3618 70.2665 15.6739C69.7826 15.986 69.4425 16.4775 69.3211 17.0404L68.7658 19.5934C68.551 19.6221 68.3379 19.6626 68.1275 19.7147C68.0818 19.6292 68.0317 19.5462 67.9775 19.4658L66.2351 17.1616C65.8885 16.7021 65.3735 16.399 64.8035 16.3191C64.2334 16.2392 63.655 16.389 63.1954 16.7356C62.7358 17.0822 62.4327 17.5972 62.3528 18.1672C62.2729 18.7373 62.4227 19.3157 62.7693 19.7753L64.5118 22.089C64.5118 22.1082 64.5437 22.1209 64.5596 22.1401C64.499 22.2231 64.448 22.3092 64.3905 22.3922L61.7322 21.8178C61.1694 21.6964 60.5814 21.8033 60.0973 22.115C59.6133 22.4268 59.2727 22.9178 59.1504 23.4804C59.0899 23.7591 59.0849 24.047 59.1357 24.3277C59.1865 24.6083 59.2921 24.8762 59.4466 25.116C59.601 25.3557 59.8012 25.5627 60.0356 25.7251C60.2701 25.8874 60.5343 26.002 60.8131 26.0622L63.4491 26.6334C63.4491 26.6973 63.465 26.7611 63.4746 26.8249H63.4523L60.9248 28.2418C60.4447 28.535 60.0969 29.0029 59.9547 29.5471C59.8124 30.0913 59.8867 30.6695 60.162 31.1601C60.4372 31.6507 60.892 32.0154 61.4306 32.1777C61.9692 32.3399 62.5498 32.2869 63.0502 32.0299L65.5777 30.613C65.5968 30.613 65.6096 30.5875 65.6287 30.5779C65.8315 30.7474 66.0447 30.904 66.267 31.047L65.7149 33.6C65.6469 33.8818 65.6359 34.1744 65.6826 34.4605C65.7294 34.7466 65.8329 35.0204 65.9871 35.2659C66.1412 35.5114 66.343 35.7235 66.5804 35.8899C66.8178 36.0562 67.086 36.1734 67.3694 36.2345C67.6528 36.2956 67.9455 36.2994 68.2304 36.2457C68.5152 36.1919 68.7864 36.0818 69.0281 35.9216C69.2697 35.7615 69.4769 35.5546 69.6373 35.3132C69.7978 35.0718 69.9084 34.8007 69.9625 34.516L70.5114 31.9629C70.671 31.9406 70.8306 31.9118 70.9869 31.8767L72.6751 34.1106C72.8371 34.3592 73.0483 34.572 73.2956 34.7358C73.5429 34.8997 73.8212 35.0111 74.1132 35.0634C74.4053 35.1156 74.7049 35.1075 74.9937 35.0395C75.2825 34.9716 75.5543 34.8452 75.7924 34.6682C76.0305 34.4912 76.2299 34.2674 76.3782 34.0104C76.5265 33.7535 76.6206 33.4689 76.6547 33.1741C76.6889 32.8794 76.6623 32.5809 76.5767 32.2968C76.491 32.0128 76.3482 31.7492 76.1569 31.5225L74.6569 29.5279C74.7527 29.3971 74.8452 29.2631 74.9314 29.1227L77.6536 29.713C77.9323 29.7736 78.2202 29.7786 78.5008 29.7277C78.7815 29.6769 79.0493 29.5713 79.2891 29.4169C79.5289 29.2624 79.7359 29.0623 79.8982 28.8278C80.0606 28.5933 80.1751 28.3291 80.2353 28.0504C80.2973 27.771 80.3033 27.4821 80.2532 27.2004C80.2031 26.9187 80.0977 26.6496 79.9431 26.4088C79.7886 26.1679 79.588 25.96 79.3528 25.797C79.1176 25.634 78.8524 25.5192 78.5727 25.459Z" fill="#FFC1EB"/>
<path d="M78.5727 25.459L75.825 24.8623C75.8026 24.7123 75.7739 24.5431 75.7388 24.4123L78.1387 23.0656C78.5914 22.7607 78.9128 22.2967 79.0391 21.7658C79.1654 21.2348 79.0873 20.6758 78.8204 20.1998C78.5534 19.7238 78.1171 19.3656 77.5982 19.1965C77.0793 19.0274 76.5158 19.0597 76.0196 19.2871L73.4953 20.704C73.4538 20.7263 73.4219 20.7551 73.3836 20.7806C73.2623 20.6912 73.1379 20.6051 73.0102 20.5253L73.5655 17.9563C73.687 17.3934 73.5799 16.8054 73.2677 16.3215C72.9556 15.8376 72.4641 15.4976 71.9012 15.3761C71.3384 15.2547 70.7504 15.3618 70.2665 15.6739C69.7826 15.986 69.4425 16.4775 69.3211 17.0404L68.7658 19.5934C68.551 19.6221 68.3379 19.6626 68.1275 19.7147C68.0818 19.6292 68.0317 19.5462 67.9775 19.4658L66.2351 17.1616C65.8885 16.7021 65.3735 16.399 64.8035 16.3191C64.2334 16.2392 63.655 16.389 63.1954 16.7356C62.7358 17.0822 62.4327 17.5972 62.3528 18.1672C62.2729 18.7373 62.4227 19.3157 62.7693 19.7753L64.5118 22.089C64.5118 22.1082 64.5437 22.1209 64.5596 22.1401C64.499 22.2231 64.448 22.3092 64.3905 22.3922L61.7322 21.8178C61.1694 21.6964 60.5814 21.8033 60.0973 22.115C59.6133 22.4268 59.2727 22.9178 59.1504 23.4804C59.0899 23.7591 59.0849 24.047 59.1357 24.3277C59.1865 24.6083 59.2921 24.8762 59.4466 25.116C59.601 25.3557 59.8012 25.5627 60.0356 25.7251C60.2701 25.8874 60.5343 26.002 60.8131 26.0622L63.4491 26.6334C63.4491 26.6973 63.465 26.7611 63.4746 26.8249H63.4523L60.9248 28.2418C60.4447 28.535 60.0969 29.0029 59.9547 29.5471C59.8124 30.0913 59.8867 30.6695 60.162 31.1601C60.4372 31.6507 60.892 32.0154 61.4306 32.1777C61.9692 32.3399 62.5498 32.2869 63.0502 32.0299L65.5777 30.613C65.5968 30.613 65.6096 30.5875 65.6287 30.5779C65.8315 30.7474 66.0447 30.904 66.267 31.047L65.7149 33.6C65.6469 33.8818 65.6359 34.1744 65.6826 34.4605C65.7294 34.7466 65.8329 35.0204 65.9871 35.2659C66.1412 35.5114 66.343 35.7235 66.5804 35.8899C66.8178 36.0562 67.086 36.1734 67.3694 36.2345C67.6528 36.2956 67.9455 36.2994 68.2304 36.2457C68.5152 36.1919 68.7864 36.0818 69.0281 35.9216C69.2697 35.7615 69.4769 35.5546 69.6373 35.3132C69.7978 35.0718 69.9084 34.8007 69.9625 34.516L70.5114 31.9629C70.671 31.9406 70.8306 31.9118 70.9869 31.8767L72.6751 34.1106C72.8371 34.3592 73.0483 34.572 73.2956 34.7358C73.5429 34.8997 73.8212 35.0111 74.1132 35.0634C74.4053 35.1156 74.7049 35.1075 74.9937 35.0395C75.2825 34.9716 75.5543 34.8452 75.7924 34.6682C76.0305 34.4912 76.2299 34.2674 76.3782 34.0104C76.5265 33.7535 76.6206 33.4689 76.6547 33.1741C76.6889 32.8794 76.6623 32.5809 76.5767 32.2968C76.491 32.0128 76.3482 31.7492 76.1569 31.5225L74.6569 29.5279C74.7527 29.3971 74.8452 29.2631 74.9314 29.1227L77.6536 29.713C77.9323 29.7736 78.2202 29.7786 78.5008 29.7277C78.7815 29.6769 79.0493 29.5713 79.2891 29.4169C79.5289 29.2624 79.7359 29.0623 79.8982 28.8278C80.0606 28.5933 80.1751 28.3291 80.2353 28.0504C80.2973 27.771 80.3033 27.4821 80.2532 27.2004C80.2031 26.9187 80.0977 26.6496 79.9431 26.4088C79.7886 26.1679 79.588 25.96 79.3528 25.797C79.1176 25.634 78.8524 25.5192 78.5727 25.459Z" fill="#FFC1EB"/>
<path d="M78.5727 25.459L75.825 24.8623C75.8026 24.7123 75.7739 24.5431 75.7388 24.4123L78.1387 23.0656C78.5914 22.7607 78.9128 22.2967 79.0391 21.7658C79.1654 21.2348 79.0873 20.6758 78.8204 20.1998C78.5534 19.7238 78.1171 19.3656 77.5982 19.1965C77.0793 19.0274 76.5158 19.0597 76.0196 19.2871L73.4953 20.704C73.4538 20.7263 73.4219 20.7551 73.3836 20.7806C73.2623 20.6912 73.1379 20.6051 73.0102 20.5253L73.5655 17.9563C73.687 17.3934 73.5799 16.8054 73.2677 16.3215C72.9556 15.8376 72.4641 15.4976 71.9012 15.3761C71.3384 15.2547 70.7504 15.3618 70.2665 15.6739C69.7826 15.986 69.4425 16.4775 69.3211 17.0404L68.7658 19.5934C68.551 19.6221 68.3379 19.6626 68.1275 19.7147C68.0818 19.6292 68.0317 19.5462 67.9775 19.4658L66.2351 17.1616C65.8885 16.7021 65.3735 16.399 64.8035 16.3191C64.2334 16.2392 63.655 16.389 63.1954 16.7356C62.7358 17.0822 62.4327 17.5972 62.3528 18.1672C62.2729 18.7373 62.4227 19.3157 62.7693 19.7753L64.5118 22.089C64.5118 22.1082 64.5437 22.1209 64.5596 22.1401C64.499 22.2231 64.448 22.3092 64.3905 22.3922L61.7322 21.8178C61.1694 21.6964 60.5814 21.8033 60.0973 22.115C59.6133 22.4268 59.2727 22.9178 59.1504 23.4804C59.0899 23.7591 59.0849 24.047 59.1357 24.3277C59.1865 24.6083 59.2921 24.8762 59.4466 25.116C59.601 25.3557 59.8012 25.5627 60.0356 25.7251C60.2701 25.8874 60.5343 26.002 60.8131 26.0622L63.4491 26.6334C63.4491 26.6973 63.465 26.7611 63.4746 26.8249H63.4523L60.9248 28.2418C60.4447 28.535 60.0969 29.0029 59.9547 29.5471C59.8124 30.0913 59.8867 30.6695 60.162 31.1601C60.4372 31.6507 60.892 32.0154 61.4306 32.1777C61.9692 32.3399 62.5498 32.2869 63.0502 32.0299L65.5777 30.613C65.5968 30.613 65.6096 30.5875 65.6287 30.5779C65.8315 30.7474 66.0447 30.904 66.267 31.047L65.7149 33.6C65.6469 33.8818 65.6359 34.1744 65.6826 34.4605C65.7294 34.7466 65.8329 35.0204 65.9871 35.2659C66.1412 35.5114 66.343 35.7235 66.5804 35.8899C66.8178 36.0562 67.086 36.1734 67.3694 36.2345C67.6528 36.2956 67.9455 36.2994 68.2304 36.2457C68.5152 36.1919 68.7864 36.0818 69.0281 35.9216C69.2697 35.7615 69.4769 35.5546 69.6373 35.3132C69.7978 35.0718 69.9084 34.8007 69.9625 34.516L70.5114 31.9629C70.671 31.9406 70.8306 31.9118 70.9869 31.8767L72.6751 34.1106C72.8371 34.3592 73.0483 34.572 73.2956 34.7358C73.5429 34.8997 73.8212 35.0111 74.1132 35.0634C74.4053 35.1156 74.7049 35.1075 74.9937 35.0395C75.2825 34.9716 75.5543 34.8452 75.7924 34.6682C76.0305 34.4912 76.2299 34.2674 76.3782 34.0104C76.5265 33.7535 76.6206 33.4689 76.6547 33.1741C76.6889 32.8794 76.6623 32.5809 76.5767 32.2968C76.491 32.0128 76.3482 31.7492 76.1569 31.5225L74.6569 29.5279C74.7527 29.3971 74.8452 29.2631 74.9314 29.1227L77.6536 29.713C77.9323 29.7736 78.2202 29.7786 78.5008 29.7277C78.7815 29.6769 79.0493 29.5713 79.2891 29.4169C79.5289 29.2624 79.7359 29.0623 79.8982 28.8278C80.0606 28.5933 80.1751 28.3291 80.2353 28.0504C80.2973 27.771 80.3033 27.4821 80.2532 27.2004C80.2031 26.9187 80.0977 26.6496 79.9431 26.4088C79.7886 26.1679 79.588 25.96 79.3528 25.797C79.1176 25.634 78.8524 25.5192 78.5727 25.459Z" fill="#FFC1EB"/>
<path d="M69.6945 28.6598C71.2825 28.6598 72.5699 27.3725 72.5699 25.7844C72.5699 24.1964 71.2825 22.9091 69.6945 22.9091C68.1065 22.9091 66.8192 24.1964 66.8192 25.7844C66.8192 27.3725 68.1065 28.6598 69.6945 28.6598Z" fill="white"/>
<path d="M64.8105 48.3934C66.3308 48.134 67.3916 46.9182 67.18 45.6777C66.9684 44.4372 65.5645 43.6417 64.0443 43.9011C62.524 44.1604 61.4632 45.3762 61.6748 46.6167C61.8864 47.8573 63.2903 48.6527 64.8105 48.3934Z" fill="black"/>
<path d="M60.9982 63.6493C60.8602 63.6487 60.7261 63.6033 60.616 63.52C60.506 63.4367 60.4259 63.3199 60.3878 63.1873C60.3497 63.0546 60.3556 62.9132 60.4047 62.7842C60.4537 62.6552 60.5433 62.5455 60.6599 62.4717C62.2733 61.4588 64.1139 60.8643 66.0149 60.742C68.3685 60.6102 70.7064 61.1991 72.7167 62.4302C72.8582 62.52 72.9587 62.6618 72.9966 62.8251C73.0344 62.9883 73.0066 63.1599 72.919 63.3027C72.8314 63.4456 72.6912 63.5483 72.5285 63.5887C72.3659 63.629 72.1939 63.6038 72.0497 63.5185C70.262 62.425 68.1838 61.9019 66.0915 62.0186C64.4046 62.127 62.7713 62.6546 61.3397 63.5536C61.2368 63.6163 61.1187 63.6495 60.9982 63.6493Z" fill="black"/>
</svg>
